<svg class="main-svg" xmlns="http://www.w3.org/2000/svg" xmlns:xlink="http://www.w3.org/1999/xlink" width="1200" height="600" style="" viewBox="0 0 1200 600"><rect x="0" y="0" width="1200" height="600" style="fill: rgb(255, 255, 255); fill-opacity: 1;"/><defs id="defs-cbf73e"><g class="clips"><clipPath id="clipcbf73exyplot" class="plotclip"><rect width="879" height="544"/></clipPath><clipPath class="axesclip" id="clipcbf73ex"><rect x="56" y="0" width="879" height="600"/></clipPath><clipPath class="axesclip" id="clipcbf73ey"><rect x="0" y="16" width="1200" height="544"/></clipPath><clipPath class="axesclip" id="clipcbf73exy"><rect x="56" y="16" width="879" height="544"/></clipPath></g><g class="gradients"/><g class="patterns"/></defs><g class="bglayer"/><g class="layer-below"><g class="imagelayer"/><g class="shapelayer"/></g><g class="cartesianlayer"><g class="subplot xy"><g class="layer-subplot"><g class="shapelayer"/><g class="imagelayer"/></g><g class="minor-gridlayer"><g class="x"/><g class="y"/></g><g class="gridlayer"><g class="x"><path class="xgrid crisp" transform="translate(148.45,0)" d="M0,16v544" style="stroke: rgb(238, 238, 238); stroke-opacity: 1; stroke-width: 1px;"/><path class="xgrid crisp" transform="translate(240.9,0)" d="M0,16v544" style="stroke: rgb(238, 238, 238); stroke-opacity: 1; stroke-width: 1px;"/><path class="xgrid crisp" transform="translate(333.35,0)" d="M0,16v544" style="stroke: rgb(238, 238, 238); stroke-opacity: 1; stroke-width: 1px;"/><path class="xgrid crisp" transform="translate(425.8,0)" d="M0,16v544" style="stroke: rgb(238, 238, 238); stroke-opacity: 1; stroke-width: 1px;"/><path class="xgrid crisp" transform="translate(518.25,0)" d="M0,16v544" style="stroke: rgb(238, 238, 238); stroke-opacity: 1; stroke-width: 1px;"/><path class="xgrid crisp" transform="translate(610.7,0)" d="M0,16v544" style="stroke: rgb(238, 238, 238); stroke-opacity: 1; stroke-width: 1px;"/><path class="xgrid crisp" transform="translate(703.15,0)" d="M0,16v544" style="stroke: rgb(238, 238, 238); stroke-opacity: 1; stroke-width: 1px;"/><path class="xgrid crisp" transform="translate(795.6,0)" d="M0,16v544" style="stroke: rgb(238, 238, 238); stroke-opacity: 1; stroke-width: 1px;"/><path class="xgrid crisp" transform="translate(888.05,0)" d="M0,16v544" style="stroke: rgb(238, 238, 238); stroke-opacity: 1; stroke-width: 1px;"/></g><g class="y"><path class="ygrid crisp" transform="translate(0,556.12)" d="M56,0h879" style="stroke: rgb(238, 238, 238); stroke-opacity: 1; stroke-width: 1px;"/><path class="ygrid crisp" transform="translate(0,503.2)" d="M56,0h879" style="stroke: rgb(238, 238, 238); stroke-opacity: 1; stroke-width: 1px;"/><path class="ygrid crisp" transform="translate(0,450.55)" d="M56,0h879" style="stroke: rgb(238, 238, 238); stroke-opacity: 1; stroke-width: 1px;"/><path class="ygrid crisp" transform="translate(0,398.19)" d="M56,0h879" style="stroke: rgb(238, 238, 238); stroke-opacity: 1; stroke-width: 1px;"/><path class="ygrid crisp" transform="translate(0,346.1)" d="M56,0h879" style="stroke: rgb(238, 238, 238); stroke-opacity: 1; stroke-width: 1px;"/><path class="ygrid crisp" transform="translate(0,294.28)" d="M56,0h879" style="stroke: rgb(238, 238, 238); stroke-opacity: 1; stroke-width: 1px;"/><path class="ygrid crisp" transform="translate(0,242.73)" d="M56,0h879" style="stroke: rgb(238, 238, 238); stroke-opacity: 1; stroke-width: 1px;"/><path class="ygrid crisp" transform="translate(0,191.45)" d="M56,0h879" style="stroke: rgb(238, 238, 238); stroke-opacity: 1; stroke-width: 1px;"/><path class="ygrid crisp" transform="translate(0,140.43)" d="M56,0h879" style="stroke: rgb(238, 238, 238); stroke-opacity: 1; stroke-width: 1px;"/><path class="ygrid crisp" transform="translate(0,89.67)" d="M56,0h879" style="stroke: rgb(238, 238, 238); stroke-opacity: 1; stroke-width: 1px;"/><path class="ygrid crisp" transform="translate(0,39.17)" d="M56,0h879" style="stroke: rgb(238, 238, 238); stroke-opacity: 1; stroke-width: 1px;"/></g></g><g class="zerolinelayer"/><g class="layer-between"><g class="shapelayer"/><g class="imagelayer"/></g><path class="xlines-below"/><path class="ylines-below"/><g class="overlines-below"/><g class="xaxislayer-below"/><g class="yaxislayer-below"/><g class="overaxes-below"/><g class="plot" transform="translate(56,16)"><g class="scatterlayer mlayer"><g class="trace scatter trace349484" style="stroke-miterlimit: 2; opacity: 1;"><g class="fills" clip-path="url(#clipcbf73exyplot)"/><g class="errorbars"/><g class="lines"><path class="js-line" style="vector-effect: none; fill: none; stroke: rgb(208, 237, 240); stroke-opacity: 1; stroke-width: 1.5px; opacity: 1;" d="M0,313.49L92.45,208.24L184.9,161.14L277.35,106.12L369.8,59.5L462.25,59.5L554.7,53.44L647.15,53.44L739.6,55.46L832.05,55.46" clip-path="url(#clipcbf73exyplot)"/></g><g class="points" clip-path="url(#clipcbf73exyplot)"/><g class="text" clip-path="url(#clipcbf73exyplot)"/></g><g class="trace scatter tracefe50a8" style="stroke-miterlimit: 2; opacity: 1;"><g class="fills" clip-path="url(#clipcbf73exyplot)"/><g class="errorbars"/><g class="lines"><path class="js-line" style="vector-effect: none; fill: none; stroke: rgb(253, 240, 204); stroke-opacity: 1; stroke-width: 1.5px; opacity: 1;" d="M0,516.8L92.45,317.64L184.9,202.08L277.35,214.4L369.8,110.19L462.25,112.22L554.7,106.12L647.15,106.12L739.6,114.26L832.05,110.19" clip-path="url(#clipcbf73exyplot)"/></g><g class="points" clip-path="url(#clipcbf73exyplot)"/><g class="text" clip-path="url(#clipcbf73exyplot)"/></g><g class="trace scatter trace968f0e" style="stroke-miterlimit: 2; opacity: 1;"><g class="fills" clip-path="url(#clipcbf73exyplot)"/><g class="errorbars"/><g class="lines"><path class="js-line" style="vector-effect: none; fill: none; stroke: rgb(252, 225, 225); stroke-opacity: 1; stroke-width: 1.5px; opacity: 1;" d="M0,274.15L92.45,204.13L184.9,173.4L277.35,73.67L369.8,35.27L462.25,41.32L554.7,29.22L647.15,31.23L739.6,27.2L832.05,31.23" clip-path="url(#clipcbf73exyplot)"/></g><g class="points" clip-path="url(#clipcbf73exyplot)"/><g class="text" clip-path="url(#clipcbf73exyplot)"/></g><g class="trace scatter traced4f593" style="stroke-miterlimit: 2; opacity: 1;"><g class="fills" clip-path="url(#clipcbf73exyplot)"/><g class="errorbars"/><g class="lines"><path class="js-line" style="vector-effect: none; fill: none; stroke: rgb(234, 223, 245); stroke-opacity: 1; stroke-width: 1.5px; opacity: 1;" d="M0,342.57L92.45,161.14L184.9,157.05L277.35,155.01L369.8,43.34L462.25,37.28L554.7,43.34L647.15,39.3L739.6,39.3L832.05,35.27" clip-path="url(#clipcbf73exyplot)"/></g><g class="points" clip-path="url(#clipcbf73exyplot)"/><g class="text" clip-path="url(#clipcbf73exyplot)"/></g><g class="trace scatter trace501733" style="stroke-miterlimit: 2; opacity: 1;"><g class="fills" clip-path="url(#clipcbf73exyplot)"/><g class="errorbars"/><g class="lines"><path class="js-line" style="vector-effect: none; fill: none; stroke: rgb(18, 164, 180); stroke-opacity: 1; stroke-width: 1.5px; opacity: 1;" d="M0,313.49L92.45,208.24L184.9,161.14L277.35,106.12L369.8,59.5L462.25,59.5L554.7,53.44L647.15,53.44L739.6,55.46L832.05,55.46" clip-path="url(#clipcbf73exyplot)"/></g><g class="points" clip-path="url(#clipcbf73exyplot)"/><g class="text" clip-path="url(#clipcbf73exyplot)"/></g><g class="trace scatter traceab9841" style="stroke-miterlimit: 2; opacity: 1;"><g class="fills" clip-path="url(#clipcbf73exyplot)"/><g class="errorbars"/><g class="lines"><path class="js-line" style="vector-effect: none; fill: none; stroke: rgb(244, 180, 0); stroke-opacity: 1; stroke-width: 1.5px; opacity: 1;" d="M0,516.8L92.45,317.64L184.9,202.08L277.35,214.4L369.8,110.19L462.25,112.22L554.7,106.12L647.15,106.12L739.6,114.26L832.05,110.19" clip-path="url(#clipcbf73exyplot)"/></g><g class="points" clip-path="url(#clipcbf73exyplot)"/><g class="text" clip-path="url(#clipcbf73exyplot)"/></g><g class="trace scatter trace4dcac5" style="stroke-miterlimit: 2; opacity: 1;"><g class="fills" clip-path="url(#clipcbf73exyplot)"/><g class="errorbars"/><g class="lines"><path class="js-line" style="vector-effect: none; fill: none; stroke: rgb(239, 104, 104); stroke-opacity: 1; stroke-width: 1.5px; opacity: 1;" d="M0,274.15L92.45,204.13L184.9,173.4L277.35,73.67L369.8,35.27L462.25,41.32L554.7,29.22L647.15,31.23L739.6,27.2L832.05,31.23" clip-path="url(#clipcbf73exyplot)"/></g><g class="points" clip-path="url(#clipcbf73exyplot)"/><g class="text" clip-path="url(#clipcbf73exyplot)"/></g><g class="trace scatter tracee719ae" style="stroke-miterlimit: 2; opacity: 1;"><g class="fills" clip-path="url(#clipcbf73exyplot)"/><g class="errorbars"/><g class="lines"><path class="js-line" style="vector-effect: none; fill: none; stroke: rgb(148, 95, 207); stroke-opacity: 1; stroke-width: 1.5px; opacity: 1;" d="M0,342.57L92.45,161.14L184.9,157.05L277.35,155.01L369.8,43.34L462.25,37.28L554.7,43.34L647.15,39.3L739.6,39.3L832.05,35.27" clip-path="url(#clipcbf73exyplot)"/></g><g class="points" clip-path="url(#clipcbf73exyplot)"/><g class="text" clip-path="url(#clipcbf73exyplot)"/></g><g class="trace scatter trace2a67cd" style="stroke-miterlimit: 2; opacity: 1;"><g class="fills" clip-path="url(#clipcbf73exyplot)"/><g class="errorbars"/><g class="lines"/><g class="points"><path class="point" transform="translate(832.05,55.46)" d="M2,0A2,2 0 1,1 0,-2A2,2 0 0,1 2,0Z" style="opacity: 1; stroke-width: 0px; fill: rgb(18, 164, 180); fill-opacity: 1;"/></g><g class="text"/></g><g class="trace scatter trace389623" style="stroke-miterlimit: 2; opacity: 1;"><g class="fills" clip-path="url(#clipcbf73exyplot)"/><g class="errorbars"/><g class="lines"/><g class="points"><path class="point" transform="translate(832.05,110.19)" d="M2,0A2,2 0 1,1 0,-2A2,2 0 0,1 2,0Z" style="opacity: 1; stroke-width: 0px; fill: rgb(244, 180, 0); fill-opacity: 1;"/></g><g class="text"/></g><g class="trace scatter trace45a8d4" style="stroke-miterlimit: 2; opacity: 1;"><g class="fills" clip-path="url(#clipcbf73exyplot)"/><g class="errorbars"/><g class="lines"/><g class="points"><path class="point" transform="translate(832.05,31.23)" d="M2,0A2,2 0 1,1 0,-2A2,2 0 0,1 2,0Z" style="opacity: 1; stroke-width: 0px; fill: rgb(239, 104, 104); fill-opacity: 1;"/></g><g class="text"/></g><g class="trace scatter tracec12624" style="stroke-miterlimit: 2; opacity: 1;"><g class="fills" clip-path="url(#clipcbf73exyplot)"/><g class="errorbars"/><g class="lines"/><g class="points"><path class="point" transform="translate(832.05,35.27)" d="M2,0A2,2 0 1,1 0,-2A2,2 0 0,1 2,0Z" style="opacity: 1; stroke-width: 0px; fill: rgb(148, 95, 207); fill-opacity: 1;"/></g><g class="text"/></g></g></g><g class="overplot"/><path class="xlines-above crisp" style="fill: none;" d="M0,0"/><path class="ylines-above crisp" style="fill: none;" d="M0,0"/><g class="overlines-above"/><g class="xaxislayer-above"><g class="xtick"><text text-anchor="middle" x="0" y="585" style="font-family: Roboto, sans-serif; font-size: 12px; fill: rgb(95, 103, 126); fill-opacity: 1; white-space: pre; opacity: 1;" transform="translate(56,0)">1</text></g><g class="xtick"><text text-anchor="middle" x="0" y="585" style="font-family: Roboto, sans-serif; font-size: 12px; fill: rgb(95, 103, 126); fill-opacity: 1; white-space: pre; opacity: 1;" transform="translate(148.45,0)">2</text></g><g class="xtick"><text text-anchor="middle" x="0" y="585" style="font-family: Roboto, sans-serif; font-size: 12px; fill: rgb(95, 103, 126); fill-opacity: 1; white-space: pre; opacity: 1;" transform="translate(240.9,0)">3</text></g><g class="xtick"><text text-anchor="middle" x="0" y="585" style="font-family: Roboto, sans-serif; font-size: 12px; fill: rgb(95, 103, 126); fill-opacity: 1; white-space: pre; opacity: 1;" transform="translate(333.35,0)">4</text></g><g class="xtick"><text text-anchor="middle" x="0" y="585" style="font-family: Roboto, sans-serif; font-size: 12px; fill: rgb(95, 103, 126); fill-opacity: 1; white-space: pre; opacity: 1;" transform="translate(425.8,0)">5</text></g><g class="xtick"><text text-anchor="middle" x="0" y="585" style="font-family: Roboto, sans-serif; font-size: 12px; fill: rgb(95, 103, 126); fill-opacity: 1; white-space: pre; opacity: 1;" transform="translate(518.25,0)">6</text></g><g class="xtick"><text text-anchor="middle" x="0" y="585" style="font-family: Roboto, sans-serif; font-size: 12px; fill: rgb(95, 103, 126); fill-opacity: 1; white-space: pre; opacity: 1;" transform="translate(610.7,0)">7</text></g><g class="xtick"><text text-anchor="middle" x="0" y="585" style="font-family: Roboto, sans-serif; font-size: 12px; fill: rgb(95, 103, 126); fill-opacity: 1; white-space: pre; opacity: 1;" transform="translate(703.15,0)">8</text></g><g class="xtick"><text text-anchor="middle" x="0" y="585" style="font-family: Roboto, sans-serif; font-size: 12px; fill: rgb(95, 103, 126); fill-opacity: 1; white-space: pre; opacity: 1;" transform="translate(795.6,0)">9</text></g><g class="xtick"><text text-anchor="middle" x="0" y="585" style="font-family: Roboto, sans-serif; font-size: 12px; fill: rgb(95, 103, 126); fill-opacity: 1; white-space: pre; opacity: 1;" transform="translate(888.05,0)">10</text></g></g><g class="yaxislayer-above"><g class="ytick"><text text-anchor="end" x="43" y="4.199999999999999" style="font-family: Roboto, sans-serif; font-size: 12px; fill: rgb(95, 103, 126); fill-opacity: 1; white-space: pre; opacity: 1;" transform="translate(0,556.12)">0.935</text></g><g class="ytick"><text text-anchor="end" x="43" y="4.199999999999999" style="font-family: Roboto, sans-serif; font-size: 12px; fill: rgb(95, 103, 126); fill-opacity: 1; white-space: pre; opacity: 1;" transform="translate(0,503.2)">0.94</text></g><g class="ytick"><text text-anchor="end" x="43" y="4.199999999999999" style="font-family: Roboto, sans-serif; font-size: 12px; fill: rgb(95, 103, 126); fill-opacity: 1; white-space: pre; opacity: 1;" transform="translate(0,450.55)">0.945</text></g><g class="ytick"><text text-anchor="end" x="43" y="4.199999999999999" style="font-family: Roboto, sans-serif; font-size: 12px; fill: rgb(95, 103, 126); fill-opacity: 1; white-space: pre; opacity: 1;" transform="translate(0,398.19)">0.95</text></g><g class="ytick"><text text-anchor="end" x="43" y="4.199999999999999" style="font-family: Roboto, sans-serif; font-size: 12px; fill: rgb(95, 103, 126); fill-opacity: 1; white-space: pre; opacity: 1;" transform="translate(0,346.1)">0.955</text></g><g class="ytick"><text text-anchor="end" x="43" y="4.199999999999999" style="font-family: Roboto, sans-serif; font-size: 12px; fill: rgb(95, 103, 126); fill-opacity: 1; white-space: pre; opacity: 1;" transform="translate(0,294.28)">0.96</text></g><g class="ytick"><text text-anchor="end" x="43" y="4.199999999999999" style="font-family: Roboto, sans-serif; font-size: 12px; fill: rgb(95, 103, 126); fill-opacity: 1; white-space: pre; opacity: 1;" transform="translate(0,242.73)">0.965</text></g><g class="ytick"><text text-anchor="end" x="43" y="4.199999999999999" style="font-family: Roboto, sans-serif; font-size: 12px; fill: rgb(95, 103, 126); fill-opacity: 1; white-space: pre; opacity: 1;" transform="translate(0,191.45)">0.97</text></g><g class="ytick"><text text-anchor="end" x="43" y="4.199999999999999" style="font-family: Roboto, sans-serif; font-size: 12px; fill: rgb(95, 103, 126); fill-opacity: 1; white-space: pre; opacity: 1;" transform="translate(0,140.43)">0.975</text></g><g class="ytick"><text text-anchor="end" x="43" y="4.199999999999999" style="font-family: Roboto, sans-serif; font-size: 12px; fill: rgb(95, 103, 126); fill-opacity: 1; white-space: pre; opacity: 1;" transform="translate(0,89.67)">0.98</text></g><g class="ytick"><text text-anchor="end" x="43" y="4.199999999999999" style="font-family: Roboto, sans-serif; font-size: 12px; fill: rgb(95, 103, 126); fill-opacity: 1; white-space: pre; opacity: 1;" transform="translate(0,39.17)">0.985</text></g></g><g class="overaxes-above"/></g></g><g class="polarlayer"/><g class="smithlayer"/><g class="ternarylayer"/><g class="geolayer"/><g class="funnelarealayer"/><g class="pielayer"/><g class="iciclelayer"/><g class="treemaplayer"/><g class="sunburstlayer"/><g class="glimages"/><defs id="topdefs-cbf73e"><g class="clips"/><clipPath id="legendcbf73e"><rect width="235" height="86" x="0" y="0"/></clipPath></defs><g class="layer-above"><g class="imagelayer"/><g class="shapelayer"/></g><g class="infolayer"><g class="legend" pointer-events="all" transform="translate(952.58,16)"><rect class="bg" shape-rendering="crispEdges" style="stroke: rgb(68, 68, 68); stroke-opacity: 1; fill: rgb(255, 255, 255); fill-opacity: 1; stroke-width: 0px;" width="235" height="86" x="0" y="0"/><g class="scrollbox" transform="" clip-path="url(#legendcbf73e)"><g class="groups" transform=""><g class="traces" style="opacity: 1;" transform="translate(0,14.5)"><text class="legendtext" text-anchor="start" style="font-family: 'Open Sans', verdana, arial, sans-serif; font-size: 12px; fill: rgb(68, 68, 68); fill-opacity: 1; white-space: pre;" x="40" y="4.680000000000001">val_acc - ResidualMLP 512*4</text><g class="layers" style="opacity: 1;"><g class="legendfill"/><g class="legendlines"><path class="js-line" d="M5,0h30" style="fill: none; stroke: rgb(18, 164, 180); stroke-opacity: 1; stroke-width: 1.5px;"/></g><g class="legendsymbols"><g class="legendpoints"/></g></g><rect class="legendtoggle" style="fill: rgb(0, 0, 0); fill-opacity: 0;" x="0" y="-9.5" width="229.65625" height="19"/></g><g class="traces" style="opacity: 1;" transform="translate(0,33.5)"><text class="legendtext" text-anchor="start" style="font-family: 'Open Sans', verdana, arial, sans-serif; font-size: 12px; fill: rgb(68, 68, 68); fill-opacity: 1; white-space: pre;" x="40" y="4.680000000000001">val_acc - ResidualMLP 512*2</text><g class="layers" style="opacity: 1;"><g class="legendfill"/><g class="legendlines"><path class="js-line" d="M5,0h30" style="fill: none; stroke: rgb(244, 180, 0); stroke-opacity: 1; stroke-width: 1.5px;"/></g><g class="legendsymbols"><g class="legendpoints"/></g></g><rect class="legendtoggle" style="fill: rgb(0, 0, 0); fill-opacity: 0;" x="0" y="-9.5" width="229.65625" height="19"/></g><g class="traces" style="opacity: 1;" transform="translate(0,52.5)"><text class="legendtext" text-anchor="start" style="font-family: 'Open Sans', verdana, arial, sans-serif; font-size: 12px; fill: rgb(68, 68, 68); fill-opacity: 1; white-space: pre;" x="40" y="4.680000000000001">val_acc - ResidualMLP 512*20</text><g class="layers" style="opacity: 1;"><g class="legendfill"/><g class="legendlines"><path class="js-line" d="M5,0h30" style="fill: none; stroke: rgb(239, 104, 104); stroke-opacity: 1; stroke-width: 1.5px;"/></g><g class="legendsymbols"><g class="legendpoints"/></g></g><rect class="legendtoggle" style="fill: rgb(0, 0, 0); fill-opacity: 0;" x="0" y="-9.5" width="229.65625" height="19"/></g><g class="traces" style="opacity: 1;" transform="translate(0,71.5)"><text class="legendtext" text-anchor="start" style="font-family: 'Open Sans', verdana, arial, sans-serif; font-size: 12px; fill: rgb(68, 68, 68); fill-opacity: 1; white-space: pre;" x="40" y="4.680000000000001">val_acc - ResidualMLP 512*10</text><g class="layers" style="opacity: 1;"><g class="legendfill"/><g class="legendlines"><path class="js-line" d="M5,0h30" style="fill: none; stroke: rgb(148, 95, 207); stroke-opacity: 1; stroke-width: 1.5px;"/></g><g class="legendsymbols"><g class="legendpoints"/></g></g><rect class="legendtoggle" style="fill: rgb(0, 0, 0); fill-opacity: 0;" x="0" y="-9.5" width="229.65625" height="19"/></g></g></g><rect class="scrollbar" rx="20" ry="3" width="0" height="0" style="fill: rgb(128, 139, 164); fill-opacity: 1;" x="0" y="0"/></g><g class="g-gtitle"/><g class="g-xtitle"/><g class="g-ytitle"/></g></svg>